<mxfile host="app.diagrams.net" modified="2023-10-29T20:13:30.580Z" agent="Mozilla/5.0 (Windows NT 10.0; Win64; x64) AppleWebKit/537.36 (KHTML, like Gecko) Chrome/118.0.0.0 Safari/537.36" version="22.0.8" etag="JGDf8QLc3GJAE7FTH4H5" type="github">
  <diagram name="PÃ¡gina-1" id="04c_PBb8Vrwewd6k-AlT">
    <mxGraphModel>
      <root>
        <mxCell id="0" />
        <mxCell id="1" parent="0" />
      </root>
    </mxGraphModel>
  </diagram>
</mxfile>
